<svg xmlns="http://www.w3.org/2000/svg" xml:space="preserve" fill-rule="evenodd" stroke-linejoin="round" stroke-miterlimit="2" clip-rule="evenodd" viewBox="0 0 1024 1024">
  <path fill="#1872c0" d="M797 496a366 366 0 0 1-299 280c-130 24-365 38-411 14-17-8 61 7 98-49 21-31 22-32 48-195l34-210c2-22 33-208 36-226 10-65 11-92 19-93 2-1 76 1 88 4 89 24 62 107 52 166-14 78-18 87-11 82 71-49 251-71 328 75 33 62 21 132 19 143l-1 9Z"/>
  <path fill="#f48a2c" d="m486 196 8-50c11-55 6-93 38-83l217 64c172 54 185 50 190 67s-20 239-22 248c-12 55-23 215-144 370a707 707 0 0 1-259 195c-8 0-14-1-92-51a812 812 0 0 1-151-123c0-3 10-3 10-3 95-2 94-4 188-14 162-17 354-149 363-372-1-30-1-40-3-40l-4-25c-30-132-164-204-318-171l-20 5h-3c-1-9 0-9 2-17Z"/>
  <path fill="#f17727" d="m271 135-5 27-7 45c-2 11-12 78-22 131l-3 21-26 160c-2 7-21 126-29 160-2 8-2 16-5 9-16-33-47-134-58-196-22-122-24-188-29-251-5-55 2-59 7-61 10-6 175-51 176-50l1 5Z"/>
  <path fill="#ebece8" d="m579 600-2 2c-100 60-193 2-176-95 22-122 147-169 218-120 49 34 53 144-40 213Z"/>
</svg>
